<svg aria-hidden="true" style="position: absolute; width: 0; height: 0; overflow: hidden;" version="1.1" xmlns="http://www.w3.org/2000/svg" xmlns:xlink="http://www.w3.org/1999/xlink">
<defs>
<symbol id="icon-wallet" viewBox="0 0 32 32">
<path fill="#f5841f" style="fill: var(--color1, #f5841f)" d="M26.156 15.984l1.078-1.266-0.469-0.344 0.75-0.687-0.578-0.437 0.75-0.563-0.484-0.375 0.781-3.813-1.187-3.531zM26.797 4.969l-7.625 2.828h-6.359l-7.625-2.828-1.188 3.531 0.797 3.813-0.5 0.375 0.766 0.563-0.578 0.437 0.75 0.687-0.469 0.344 1.078 1.266-1.641 5.063 1.516 5.172 5.328-1.469 1.031 0.844 2.109 1.437h3.609l2.109-1.437 1.031-0.844 5.344 1.469 1.531-5.172-1.656-5.063z"></path>
<path fill="#e27625" style="fill: var(--color2, #e27625)" d="M26.797 4.969l-9.359 6.891 1.734-4.063 7.625-2.828z"></path>
<path fill="#e27625" style="fill: var(--color2, #e27625)" d="M5.188 4.969l9.281 6.953-1.656-4.125-7.625-2.828z"></path>
<path fill="#e27625" style="fill: var(--color2, #e27625)" d="M23.437 20.953l-2.5 3.781 5.344 1.469 1.531-5.172-4.375-0.078z"></path>
<path fill="#e27625" style="fill: var(--color2, #e27625)" d="M4.203 21.031l1.516 5.172 5.328-1.469-2.484-3.781-4.359 0.078z"></path>
<path fill="#e27625" style="fill: var(--color2, #e27625)" d="M10.766 14.547l-1.484 2.234 5.281 0.234-0.172-5.656-3.625 3.188z"></path>
<path fill="#e27625" style="fill: var(--color2, #e27625)" d="M21.234 14.547l-3.687-3.25-0.109 5.719 5.281-0.234-1.484-2.234z"></path>
<path fill="#e27625" style="fill: var(--color2, #e27625)" d="M11.047 24.734l3.203-1.531-2.766-2.125-0.438 3.656z"></path>
<path fill="#e27625" style="fill: var(--color2, #e27625)" d="M17.75 23.203l3.187 1.531-0.437-3.656-2.75 2.125z"></path>
<path fill="#d7c1b3" style="fill: var(--color3, #d7c1b3)" d="M20.937 24.734l-3.187-1.531 0.266 2.063-0.031 0.875 2.953-1.406z"></path>
<path fill="#d7c1b3" style="fill: var(--color3, #d7c1b3)" d="M11.047 24.734l2.969 1.406-0.016-0.875 0.25-2.063-3.203 1.531z"></path>
<path fill="#2f343b" style="fill: var(--color4, #2f343b)" d="M14.063 19.703l-2.641-0.766 1.875-0.859 0.766 1.625z"></path>
<path fill="#2f343b" style="fill: var(--color4, #2f343b)" d="M17.922 19.703l0.781-1.625 1.875 0.859-2.656 0.766z"></path>
<path fill="#cc6228" style="fill: var(--color5, #cc6228)" d="M11.047 24.734l0.469-3.781-2.953 0.078 2.484 3.703z"></path>
<path fill="#cc6228" style="fill: var(--color5, #cc6228)" d="M20.484 20.953l0.453 3.781 2.5-3.703-2.953-0.078z"></path>
<path fill="#cc6228" style="fill: var(--color5, #cc6228)" d="M22.719 16.781l-5.281 0.234 0.484 2.687 0.781-1.625 1.875 0.859 2.141-2.156z"></path>
<path fill="#cc6228" style="fill: var(--color5, #cc6228)" d="M11.422 18.937l1.875-0.859 0.766 1.625 0.5-2.687-5.281-0.234 2.141 2.156z"></path>
<path fill="#e27625" style="fill: var(--color2, #e27625)" d="M9.281 16.781l2.203 4.297-0.063-2.141-2.141-2.156z"></path>
<path fill="#e27625" style="fill: var(--color2, #e27625)" d="M20.578 18.937l-0.078 2.141 2.219-4.297-2.141 2.156z"></path>
<path fill="#e27625" style="fill: var(--color2, #e27625)" d="M14.563 17.016l-0.5 2.687 0.625 3.188 0.141-4.188-0.266-1.687z"></path>
<path fill="#e27625" style="fill: var(--color2, #e27625)" d="M17.437 17.016l-0.266 1.672 0.125 4.203 0.625-3.188-0.484-2.687z"></path>
<path fill="#f5841f" style="fill: var(--color1, #f5841f)" d="M17.922 19.703l-0.625 3.188 0.453 0.312 2.75-2.125 0.078-2.141-2.656 0.766z"></path>
<path fill="#f5841f" style="fill: var(--color1, #f5841f)" d="M11.422 18.937l0.063 2.141 2.766 2.125 0.437-0.312-0.625-3.188-2.641-0.766z"></path>
<path fill="#c0ad9e" style="fill: var(--color6, #c0ad9e)" d="M17.984 26.141l0.031-0.875-0.25-0.203h-3.547l-0.219 0.203 0.016 0.875-2.969-1.406 1.031 0.844 2.109 1.453h3.609l2.109-1.453 1.031-0.844-2.953 1.406z"></path>
<path fill="#2f343b" style="fill: var(--color4, #2f343b)" d="M17.75 23.203l-0.453-0.312h-2.609l-0.437 0.312-0.25 2.063 0.219-0.203h3.547l0.25 0.203-0.266-2.063z"></path>
<path fill="#763e1a" style="fill: var(--color7, #763e1a)" d="M27.203 12.313l0.781-3.813-1.187-3.531-9.047 6.656 3.484 2.922 4.922 1.437 1.078-1.266-0.469-0.344 0.75-0.672-0.578-0.453 0.75-0.563-0.484-0.375z"></path>
<path fill="#763e1a" style="fill: var(--color7, #763e1a)" d="M4 8.5l0.797 3.813-0.5 0.375 0.75 0.578-0.578 0.437 0.75 0.672-0.469 0.344 1.094 1.266 4.922-1.437 3.484-2.922-9.063-6.656-1.188 3.531z"></path>
<path fill="#f5841f" style="fill: var(--color1, #f5841f)" d="M26.156 15.984l-4.922-1.437 1.484 2.234-2.219 4.297 2.937-0.047h4.375l-1.656-5.047z"></path>
<path fill="#f5841f" style="fill: var(--color1, #f5841f)" d="M10.766 14.547l-4.922 1.437-1.641 5.047h4.359l2.922 0.047-2.203-4.297 1.484-2.234z"></path>
<path fill="#f5841f" style="fill: var(--color1, #f5841f)" d="M17.437 17.016l0.313-5.391 1.422-3.828h-6.359l1.438 3.828 0.313 5.391 0.125 1.687v4.188h2.609l0.016-4.188 0.125-1.687z"></path>
</symbol>
<symbol id="icon-discord" viewBox="0 0 32 32">
<path d="M25.256 7.848c-1.726-0.759-3.572-1.31-5.501-1.624-0.237 0.403-0.514 0.944-0.705 1.375-2.051-0.29-4.084-0.29-6.097 0-0.191-0.431-0.474-0.972-0.713-1.375-1.932 0.314-3.78 0.867-5.506 1.628-3.482 4.943-4.426 9.763-3.954 14.515 2.309 1.62 4.547 2.604 6.747 3.248 0.543-0.702 1.028-1.449 1.445-2.236-0.795-0.284-1.556-0.634-2.276-1.041 0.191-0.133 0.378-0.272 0.558-0.415 4.388 1.928 9.155 1.928 13.491 0 0.182 0.143 0.369 0.282 0.558 0.415-0.722 0.409-1.485 0.759-2.28 1.043 0.417 0.785 0.9 1.534 1.445 2.236 2.202-0.644 4.442-1.628 6.752-3.25 0.554-5.509-0.946-10.285-3.964-14.519zM11.57 19.445c-1.317 0-2.397-1.155-2.397-2.562s1.057-2.564 2.397-2.564 2.42 1.155 2.397 2.564c0.002 1.407-1.057 2.562-2.397 2.562zM20.43 19.445c-1.317 0-2.397-1.155-2.397-2.562s1.057-2.564 2.397-2.564c1.34 0 2.42 1.155 2.397 2.564 0 1.407-1.057 2.562-2.397 2.562z"></path>
</symbol>
<symbol id="icon-ship" viewBox="0 0 32 32">
<path d="M16.14 0.001c-8.947-0.074-16.213 7.192-16.139 16.139 0.075 8.688 7.173 15.787 15.859 15.859 8.947 0.077 16.216-7.192 16.139-16.139-0.072-8.685-7.171-15.784-15.859-15.859zM11.356 7.964c1.024 1.301 1.637 2.947 1.637 4.733 0 1.547-0.459 2.987-1.248 4.189h-5.547l5.158-8.922zM28.268 17.711v1.152c0 0.075-0.040 0.139-0.109 0.168-0.376 0.16-1.616 0.736-2.133 1.453-1.331 1.853-2.347 4.765-4.619 4.765h-9.48c-3.357 0-6.165-2.664-6.163-6.213 0-0.088 0.075-0.16 0.163-0.16h4.493c0.155 0 0.277 0.125 0.277 0.277v0.867c0 0.461 0.373 0.835 0.835 0.835h3.408v-1.984h-2.328c1.339-1.696 2.136-3.837 2.136-6.168 0-2.6-0.997-4.971-2.629-6.744 0.987 0.115 1.931 0.312 2.821 0.573v-0.552c0-0.573 0.464-1.037 1.037-1.037s1.037 0.464 1.037 1.037v1.331c3.181 1.485 5.264 3.949 5.264 6.736 0 1.635-0.715 3.157-1.949 4.437-0.237 0.245-0.565 0.384-0.909 0.384h-2.405v1.981h3.019c0.651 0 1.819-1.235 2.373-1.979 0 0 0.024-0.037 0.088-0.056s5.544-1.277 5.544-1.277c0.115-0.032 0.229 0.056 0.229 0.173v0.002z"></path>
</symbol>
<symbol id="icon-x-social" viewBox="0 0 32 32">
<path d="M19.044 13.543l11.913-13.543h-2.823l-10.344 11.759-8.262-11.759h-9.529l12.493 17.782-12.493 14.202h2.823l10.923-12.418 8.725 12.418h9.529l-12.956-18.441zM15.178 17.938l-11.337-15.86h4.336l19.959 27.921h-4.336l-8.622-12.061z"></path>
</symbol>
</defs>
</svg>
